<?xml version="1.0" standalone="no"?>
<svg xmlns:mydata="http://www.w3.org/2000/svg" mydata:contrastcolor="120a17" mydata:template="Default" mydata:presentation="2.5" mydata:layouttype="undefined" mydata:specialfontid="undefined" mydata:id1="001" mydata:id2="190" mydata:companyname="Sion Solutions" mydata:companytagline="" version="1.1" xmlns="http://www.w3.org/2000/svg" xmlns:xlink="http://www.w3.org/1999/xlink" viewBox="0 0 550 470" id="salvar"><g fill="none" fill-rule="none" stroke="none" stroke-width="1" stroke-linecap="butt" stroke-linejoin="miter" stroke-miterlimit="10" stroke-dasharray="" stroke-dashoffset="0" font-family="none" font-weight="none" font-size="none" text-anchor="none" style="mix-blend-mode: normal"><g data-paper-data="{&quot;isGlobalGroup&quot;:true,&quot;bounds&quot;:{&quot;x&quot;:83.38817639464463,&quot;y&quot;:176.7615629675297,&quot;width&quot;:383.22364721071074,&quot;height&quot;:116.4768740649406}}"><g data-paper-data="{&quot;stacked&quot;:true,&quot;isPrimaryText&quot;:true}" fill-rule="nonzero"><path d="M255.82929,217.67817c6.86712,0.76301 10.68219,4.29195 10.68219,10.01455c0,4.57808 -3.81507,8.48853 -8.67928,8.48853c-4.19658,0 -7.53476,-1.04914 -10.77757,-5.15034l-12.20822,8.96541c6.77175,7.43938 14.87877,10.39606 22.98579,10.39606c12.49435,0 24.03493,-9.91918 24.03493,-23.7488c0,-13.73425 -10.01455,-21.93664 -22.1274,-22.69966c-7.53476,-0.47688 -9.91918,-3.43356 -9.91918,-6.67637c0,-3.91045 2.67055,-6.29486 6.58099,-6.29486c2.47979,0 5.62723,1.52603 7.53476,3.52894l11.63596,-8.48853c-5.43647,-6.48562 -12.11284,-9.15616 -19.17072,-9.15616c-9.8238,0 -20.8875,8.48853 -20.8875,20.50599c0,11.15908 8.01164,18.88459 20.31524,20.31524z" data-paper-data="{&quot;glyphName&quot;:&quot;S&quot;,&quot;glyphIndex&quot;:0,&quot;firstGlyphOfWord&quot;:true,&quot;word&quot;:1,&quot;line&quot;:1,&quot;firstGlyphOfFirstLine&quot;:true}" fill="#305cde"></path><path d="M306.5697,178.09684h-14.78339v71.05565h14.78339z" data-paper-data="{&quot;glyphName&quot;:&quot;I&quot;,&quot;glyphIndex&quot;:1,&quot;word&quot;:1,&quot;line&quot;:1}" fill="#305cde"></path><path d="M353.97192,250.39239c20.31524,0 36.72003,-16.50017 36.72003,-36.81541c0,-20.31524 -16.40479,-36.72003 -36.81541,-36.72003c-20.31524,0 -36.72003,16.40479 -36.72003,36.72003c0,20.31524 16.40479,36.81541 36.81541,36.81541zM353.87655,190.97269c12.01747,0 21.65051,10.10993 21.65051,22.60428c0,12.6851 -9.53767,22.60428 -21.55514,22.60428c-12.20822,0 -21.65051,-9.91918 -21.65051,-22.60428c0,-12.49435 9.44229,-22.60428 21.55514,-22.60428z" data-paper-data="{&quot;glyphName&quot;:&quot;O&quot;,&quot;glyphIndex&quot;:2,&quot;word&quot;:1,&quot;line&quot;:1}" fill="#305cde"></path><path d="M451.82843,219.2042l-50.54966,-42.44264v72.39093h14.78339v-40.82123l50.54966,42.06113v-72.29555h-14.78339z" data-paper-data="{&quot;glyphName&quot;:&quot;N&quot;,&quot;glyphIndex&quot;:3,&quot;lastGlyphOfWord&quot;:true,&quot;word&quot;:1,&quot;line&quot;:1,&quot;lastGlyphOfFirstLine&quot;:true}" fill="#305cde"></path><path d="M243.72167,279.40109c2.90463,0.32274 4.51832,1.81539 4.51832,4.23592c0,1.93642 -1.61368,3.59045 -3.67113,3.59045c-1.77505,0 -3.18703,-0.44376 -4.55866,-2.17847l-5.16379,3.79216c2.86429,3.14668 6.29337,4.39729 9.72245,4.39729c5.28482,0 10.16621,-4.19558 10.16621,-10.04519c0,-5.80926 -4.23592,-9.27868 -9.35937,-9.60142c-3.18703,-0.20171 -4.19558,-1.45232 -4.19558,-2.82395c0,-1.65403 1.12958,-2.66258 2.78361,-2.66258c1.04889,0 2.38018,0.64547 3.18703,1.49266l4.92174,-3.59045c-2.2995,-2.74326 -5.12345,-3.87284 -8.10876,-3.87284c-4.15524,0 -8.83492,3.59045 -8.83492,8.67355c0,4.72003 3.38874,7.98774 8.59287,8.59287z" data-paper-data="{&quot;glyphName&quot;:&quot;S&quot;,&quot;glyphIndex&quot;:4,&quot;firstGlyphOfWord&quot;:true,&quot;word&quot;:2,&quot;line&quot;:2,&quot;firstGlyphOfSecondLine&quot;:true}" fill="#305cdf"></path><path d="M273.2521,293.23844c8.59287,0 15.53171,-6.97918 15.53171,-15.57205c0,-8.59287 -6.93884,-15.53171 -15.57205,-15.53171c-8.59287,0 -15.53171,6.93884 -15.53171,15.53171c0,8.59287 6.93884,15.57205 15.57205,15.57205zM273.21175,268.1053c5.08311,0 9.15766,4.27626 9.15766,9.56108c0,5.3655 -4.03421,9.56108 -9.11732,9.56108c-5.16379,0 -9.15766,-4.19558 -9.15766,-9.56108c0,-5.28482 3.99387,-9.56108 9.11732,-9.56108z" data-paper-data="{&quot;glyphName&quot;:&quot;O&quot;,&quot;glyphIndex&quot;:5,&quot;word&quot;:2,&quot;line&quot;:2}" fill="#305cdf"></path><path d="M293.26178,262.65912v30.05487h18.35566v-5.6479h-12.10263v-24.40698z" data-paper-data="{&quot;glyphName&quot;:&quot;L&quot;,&quot;glyphIndex&quot;:6,&quot;word&quot;:2,&quot;line&quot;:2}" fill="#305cdf"></path><path d="M327.22984,293.23844c8.02808,0 12.90947,-5.16379 12.90947,-13.91803v-16.66129h-6.25303v17.18574c0,4.51832 -2.01711,7.38261 -6.65645,7.38261c-4.43763,0 -6.73713,-2.66258 -6.73713,-7.38261v-17.18574h-6.25303v16.13684c0,8.35082 4.19558,14.44247 12.99016,14.44247z" data-paper-data="{&quot;glyphName&quot;:&quot;U&quot;,&quot;glyphIndex&quot;:7,&quot;word&quot;:2,&quot;line&quot;:2}" fill="#305cdf"></path><path d="M357.16368,292.71399v-24.40698h7.90705v-5.6479h-21.58303v5.6479h7.42295v24.40698z" data-paper-data="{&quot;glyphName&quot;:&quot;T&quot;,&quot;glyphIndex&quot;:8,&quot;word&quot;:2,&quot;line&quot;:2}" fill="#305cdf"></path><path d="M374.95455,262.65912h-6.25303v30.05487h6.25303z" data-paper-data="{&quot;glyphName&quot;:&quot;I&quot;,&quot;glyphIndex&quot;:9,&quot;word&quot;:2,&quot;line&quot;:2}" fill="#305cdf"></path><path d="M395.00458,293.23844c8.59287,0 15.53171,-6.97918 15.53171,-15.57205c0,-8.59287 -6.93884,-15.53171 -15.57205,-15.53171c-8.59287,0 -15.53171,6.93884 -15.53171,15.53171c0,8.59287 6.93884,15.57205 15.57205,15.57205zM394.96424,268.1053c5.08311,0 9.15766,4.27626 9.15766,9.56108c0,5.3655 -4.03421,9.56108 -9.11732,9.56108c-5.16379,0 -9.15766,-4.19558 -9.15766,-9.56108c0,-5.28482 3.99387,-9.56108 9.11732,-9.56108z" data-paper-data="{&quot;glyphName&quot;:&quot;O&quot;,&quot;glyphIndex&quot;:10,&quot;word&quot;:2,&quot;line&quot;:2}" fill="#305cdf"></path><path d="M436.39558,280.04657l-21.38132,-17.95224v30.61966h6.25303v-17.26642l21.38132,17.79087v-30.57932h-6.25303z" data-paper-data="{&quot;glyphName&quot;:&quot;N&quot;,&quot;glyphIndex&quot;:11,&quot;word&quot;:2,&quot;line&quot;:2}" fill="#305cdf"></path><path d="M455.59843,279.40109c2.90463,0.32274 4.51832,1.81539 4.51832,4.23592c0,1.93642 -1.61368,3.59045 -3.67113,3.59045c-1.77505,0 -3.18703,-0.44376 -4.55866,-2.17847l-5.16379,3.79216c2.86429,3.14668 6.29337,4.39729 9.72245,4.39729c5.28482,0 10.16621,-4.19558 10.16621,-10.04519c0,-5.80926 -4.23592,-9.27868 -9.35937,-9.60142c-3.18703,-0.20171 -4.19558,-1.45232 -4.19558,-2.82395c0,-1.65403 1.12958,-2.66258 2.78361,-2.66258c1.04889,0 2.38018,0.64547 3.18703,1.49266l4.92174,-3.59045c-2.2995,-2.74326 -5.12345,-3.87284 -8.10876,-3.87284c-4.15524,0 -8.83492,3.59045 -8.83492,8.67355c0,4.72003 3.38874,7.98774 8.59287,8.59287z" data-paper-data="{&quot;glyphName&quot;:&quot;S&quot;,&quot;glyphIndex&quot;:12,&quot;lastGlyphOfWord&quot;:true,&quot;word&quot;:2,&quot;line&quot;:2,&quot;lastGlyphOfSecondLine&quot;:true}" fill="#305cdf"></path></g><g data-paper-data="{&quot;isIcon&quot;:&quot;true&quot;,&quot;iconType&quot;:&quot;icon&quot;,&quot;rawIconId&quot;:&quot;1608171&quot;,&quot;selectedEffects&quot;:{&quot;container&quot;:&quot;&quot;,&quot;transformation&quot;:&quot;&quot;,&quot;pattern&quot;:&quot;&quot;},&quot;fillRule&quot;:&quot;evenodd&quot;,&quot;fillRuleOriginal&quot;:&quot;evenodd&quot;,&quot;iconStyle&quot;:&quot;standalone&quot;,&quot;bounds&quot;:{&quot;x&quot;:83.38817639464463,&quot;y&quot;:177.69768376124472,&quot;width&quot;:116.44677977721312,&quot;height&quot;:114.60398009724378},&quot;suitableAsStandaloneIcon&quot;:true}" fill-rule="evenodd"><g data-paper-data="{&quot;isPathIcon&quot;:true}"><path d="M196.01696,177.69768h-3.818v3.818h-3.818v3.818h3.818v3.817h3.818v-3.817h3.818v-3.818h-3.818zM196.01696,181.51568v3.818h-3.818v-3.818zM146.69097,178.14168c1.344,0.176 2.69,0.411 4,0.701l-0.827,3.728c-1.199,-0.267 -2.43,-0.481 -3.661,-0.639zM154.60996,179.91168c1.304,0.414 2.588,0.888 3.818,1.413l-1.503,3.501c-1.118,-0.476 -2.289,-0.901 -3.478,-1.283zM162.09296,183.07668c1.197,0.642 2.373,1.35 3.488,2.1l-2.131,3.169c-1.014,-0.674 -2.081,-1.319 -3.173,-1.909zM169.13496,193.05868c-0.863,-0.878 -1.771,-1.712 -2.72,-2.497l2.434,-2.938c1.049,0.869 2.053,1.791 3.008,2.763zM173.71696,198.82168c-0.658,-1.037 -1.37,-2.039 -2.135,-3.001l2.988,-2.371c0.848,1.071 1.639,2.185 2.371,3.337zM176.92696,205.41768c-0.41,-1.156 -0.886,-2.287 -1.424,-3.389l3.433,-1.67c0.599,1.23 1.13,2.492 1.588,3.782zM178.59796,212.56868c-0.143,-1.22 -0.356,-2.431 -0.636,-3.627l3.719,-0.861c0.31,1.331 0.547,2.678 0.71,4.035zM182.65396,216.58668c0,1.172 -0.053,2.411 -0.16,3.681l-3.807,-0.323c0.1,-1.163 0.149,-2.295 0.149,-3.36v-0.349l3.818,-0.031zM174.26796,238.29567l3.574,1.336c-0.462,1.233 -0.954,2.465 -1.476,3.694l-3.514,-1.495c0.5,-1.172 0.973,-2.355 1.416,-3.535zM171.29596,245.29567l3.436,1.644c-0.573,1.198 -1.17,2.384 -1.787,3.552l-3.367,-1.802c0.598,-1.117 1.171,-2.249 1.718,-3.394zM167.70296,251.95567l3.232,2.026c-0.672,1.069 -1.422,2.174 -2.209,3.316l-3.136,-2.177c0.752,-1.086 1.47,-2.141 2.113,-3.165zM163.36196,258.30167l3.133,2.18c-0.725,1.044 -1.451,2.103 -2.144,3.173l-3.205,-2.074c0.716,-1.107 1.464,-2.203 2.216,-3.279zM160.83296,270.16167l-3.549,-1.407c0.514,-1.279 1.11,-2.525 1.783,-3.728l3.343,1.846c-0.595,1.062 -1.121,2.161 -1.577,3.289zM91.02398,284.59967h-3.8179v-3.818h3.8179zM91.02398,288.41766h3.818v-3.818h-3.818zM87.20608,288.41766v3.818h3.8179v-3.818h-3.8179zM87.20608,288.41766h-3.8179v-3.818h3.8179z" fill="#305cde"></path><path d="M109.37097,252.30167c1.187,2.1 2.736,4.307 4.374,6.645c3.464,4.938 7.32,10.499 7.74,15.327c-1.467,1.038 -2.325,2.735 -2.29,4.532c0.005,1.29 0.451,2.54 1.263,3.543c-1.13,1.115 -1.762,2.639 -1.752,4.226c0,3.163 2.564,5.727 5.727,5.727h32.45199c1.539,-0.009 3.011,-0.634 4.087,-1.735c1.075,-1.101 1.666,-2.586 1.64,-4.125c-0.001,-1.553 -0.636,-3.038 -1.756,-4.112c0.822,-1.042 1.268,-2.331 1.267,-3.658c-0.002,-1.494 -0.615,-2.922 -1.697,-3.953c-1.081,-1.031 -2.537,-1.575 -4.03,-1.506h-13.83v-36.33699h3.818v5.726c0,1.055 0.855,1.909 1.909,1.909h5.727v2.261c-2.63,0.929 -4.207,3.618 -3.736,6.367c0.472,2.749 2.856,4.759 5.645,4.759c2.789,0 5.173,-2.01 5.644,-4.759c0.472,-2.749 -1.106,-5.438 -3.735,-6.367v-4.17c0,-1.054 -0.855,-1.909 -1.909,-1.909h-5.727v-3.817h7.636c1.054,0 1.909,-0.855 1.909,-1.909v-3.818h11.805c0.929,2.629 3.619,4.207 6.367,3.735c2.75,-0.472 4.759,-2.855 4.759,-5.644c0,-2.789 -2.009,-5.173 -4.759,-5.645c-2.748,-0.471 -5.438,1.106 -6.367,3.736h-11.805v-7.636h7.636c1.054,0 1.909,-0.855 1.909,-1.909v-7.987c2.629,-0.93 4.207,-3.619 3.735,-6.368c-0.472,-2.749 -2.855,-4.758 -5.644,-4.758c-2.79,0 -5.173,2.009 -5.645,4.758c-0.472,2.749 1.106,5.438 3.736,6.368v6.078h-5.727v-3.818c0,-1.054 -0.855,-1.909 -1.909,-1.909h-3.818v-9.896c2.629,-0.93 4.207,-3.619 3.735,-6.368c-0.471,-2.749 -2.855,-4.758 -5.644,-4.758c-2.789,0 -5.173,2.009 -5.645,4.758c-0.471,2.749 1.106,5.438 3.736,6.368v9.896h-7.636v-30.47699c0,-1.054 -0.855,-1.909 -1.909,-1.909c-23.549,0 -41.99709,17.051 -41.99709,38.81499c0,10.339 4.1041,24.029 10.7111,35.72299zM138.74797,181.62368v13.336c-0.506,0.039 -1.023,0.084 -1.577,0.151c-0.81,0.099 -1.469,0.702 -1.638,1.501l-0.572,2.766c-0.479,0.114 -0.955,0.242 -1.434,0.382l-1.909,-2.123c-0.545,-0.609 -1.418,-0.804 -2.17,-0.483c-2.137,0.921 -4.153,2.099 -6.006,3.507c-0.652,0.492 -0.92,1.344 -0.664,2.12l0.876,2.673c-0.361,0.34 -0.712,0.69 -1.052,1.052l-2.672,-0.876c-0.776,-0.252 -1.625,0.014 -2.119,0.662c-1.406,1.854 -2.58,3.873 -3.498,6.011c-0.32,0.753 -0.126,1.625 0.483,2.171l2.123,1.909c-0.144,0.477 -0.271,0.955 -0.382,1.433l-2.766,0.573c-0.799,0.169 -1.402,0.827 -1.5,1.638c-0.311,2.314 -0.311,4.658 0,6.972c0.098,0.81 0.701,1.469 1.5,1.637l2.766,0.573c0.115,0.48 0.242,0.958 0.382,1.434l-2.123,1.909c-0.609,0.545 -0.803,1.418 -0.483,2.17c0.921,2.138 2.1,4.156 3.509,6.01c0.495,0.648 1.345,0.913 2.121,0.662l2.672,-0.876c0.34,0.361 0.691,0.712 1.052,1.052l-0.876,2.672c-0.256,0.776 0.011,1.629 0.662,2.121c1.853,1.41 3.87,2.589 6.008,3.511c0.752,0.32 1.625,0.126 2.171,-0.483l1.908,-2.123c0.476,0.145 0.955,0.273 1.434,0.382l0.573,2.764c0.168,0.799 0.825,1.403 1.636,1.502c0.553,0.067 1.071,0.115 1.578,0.151v21.146h-13.511c-0.781,-5.624 -4.795,-11.349 -8.379,-16.459c-1.584,-2.261 -3.081,-4.391 -4.174,-6.331c-6.21,-10.986 -10.219,-24.27 -10.219,-33.84399c0,-19.028 15.781,-34.07299 36.26999,-34.95499zM152.11096,192.96868c1.054,0 1.909,0.855 1.909,1.909c0,1.055 -0.855,1.909 -1.909,1.909c-1.054,0 -1.909,-0.854 -1.909,-1.909c0,-1.054 0.855,-1.909 1.909,-1.909zM127.08797,239.52067c-0.88,-0.746 -1.697,-1.563 -2.443,-2.443c-0.504,-0.59 -1.314,-0.816 -2.051,-0.573l-2.521,0.829c-0.627,-0.919 -1.191,-1.88 -1.688,-2.875l2.003,-1.795c0.579,-0.518 0.785,-1.336 0.523,-2.067c-0.39,-1.082 -0.689,-2.194 -0.896,-3.325c-0.138,-0.765 -0.726,-1.368 -1.487,-1.528l-2.619,-0.551c-0.046,-0.592 -0.068,-1.146 -0.068,-1.674c0,-0.529 0.022,-1.083 0.068,-1.675l2.619,-0.551c0.761,-0.16 1.349,-0.763 1.487,-1.527c0.207,-1.132 0.506,-2.245 0.896,-3.328c0.262,-0.731 0.056,-1.549 -0.523,-2.067l-2.003,-1.793c0.498,-0.994 1.062,-1.955 1.688,-2.875l2.521,0.829c0.737,0.24 1.547,0.014 2.053,-0.573c0.747,-0.881 1.565,-1.7 2.445,-2.449c0.589,-0.503 0.815,-1.313 0.573,-2.048l-0.827,-2.522c0.916,-0.626 1.872,-1.19 2.864,-1.688l1.794,2.003c0.518,0.579 1.336,0.786 2.067,0.523c1.082,-0.391 2.194,-0.691 3.326,-0.895c0.764,-0.139 1.368,-0.727 1.527,-1.487l0.332,-1.514v6.563c-8.671,0.998 -15.217,8.339 -15.217,17.068c0,8.729 6.546,16.07 15.217,17.068v6.565l-0.317,-1.503c-0.158,-0.761 -0.762,-1.349 -1.527,-1.489c-1.131,-0.205 -2.244,-0.504 -3.325,-0.895c-0.207,-0.074 -0.426,-0.112 -0.646,-0.113c-0.542,0 -1.06,0.232 -1.422,0.636l-1.794,2.003c-0.995,-0.497 -1.956,-1.061 -2.875,-1.688l0.828,-2.522c0.243,-0.739 0.013,-1.552 -0.582,-2.054zM167.38296,202.51368c1.054,0 1.909,0.855 1.909,1.909c0,1.054 -0.855,1.909 -1.909,1.909c-1.055,0 -1.909,-0.855 -1.909,-1.909c0,-1.054 0.854,-1.909 1.909,-1.909zM138.74797,210.30268v26.42c-6.57,-0.944 -11.448,-6.573 -11.448,-13.21c0,-6.638 4.878,-12.267 11.448,-13.21zM142.56597,213.96768h13.363v19.09h-13.363zM176.92696,227.33068c1.055,0 1.909,0.854 1.909,1.909c0,1.054 -0.854,1.909 -1.909,1.909c-1.054,0 -1.909,-0.855 -1.909,-1.909c0,-1.055 0.855,-1.909 1.909,-1.909zM155.92896,250.23767c1.054,0 1.909,0.855 1.909,1.909c0,1.055 -0.855,1.909 -1.909,1.909c-1.055,0 -1.909,-0.854 -1.909,-1.909c0,-1.054 0.854,-1.909 1.909,-1.909zM156.39496,277.03067c0.495,-0.046 0.987,0.121 1.351,0.46c0.365,0.339 0.567,0.817 0.558,1.315c0,1.054 -0.855,1.909 -1.909,1.909h-31.47499c-0.527,-0.009 -1.028,-0.231 -1.388,-0.616c-0.36,-0.385 -0.548,-0.9 -0.521,-1.427c0.018,-0.477 0.234,-0.925 0.596,-1.237c0.362,-0.311 0.838,-0.458 1.313,-0.404zM124.43097,288.48366c-0.527,-0.008 -1.028,-0.231 -1.388,-0.616c-0.36,-0.385 -0.548,-0.9 -0.521,-1.426c0,-1.055 0.855,-1.909 1.909,-1.909h32.45199c0.527,0.008 1.028,0.231 1.388,0.616c0.36,0.385 0.548,0.9 0.521,1.426c0,1.055 -0.854,1.909 -1.909,1.909z" fill="#305cdf"></path></g></g><path d="M213.83954,293.23844v-116.47687h2.10696v116.47687z" data-paper-data="{&quot;isShapeTextSeparator&quot;:true}" fill="#305cde" fill-rule="nonzero"></path></g></g></svg>